<svg height="512" viewBox="0 0 32 32" width="512" xmlns="http://www.w3.org/2000/svg"><g id="_39-Notification" data-name="39-Notification"><path d="m28.59 22.49c-.28-.5-.62-1-1-1.53a9.25 9.25 0 0 1 -1.83-3.87l-.42-5.9c-.25-4.57-2.92-9.19-8.23-9.19h-2.22c-5.31 0-8 4.62-8.27 9.18l-.42 5.91a9.38 9.38 0 0 1 -1.83 3.91c-.34.52-.68 1-.91 1.45a2.22 2.22 0 0 0 -.2 2.33 2.4 2.4 0 0 0 2.2 1.22h7.72a3 3 0 1 0 5.64 0h7.72a2.4 2.4 0 0 0 2.2-1.26 2.14 2.14 0 0 0 -.15-2.25zm-11.59 4.51a1 1 0 1 1 -1-1 1 1 0 0 1 1 1zm10-3.17c0 .08-.17.17-.42.17h-21.12c-.25 0-.38-.09-.42-.17s0-.19.1-.35c.27-.46.58-.94.9-1.42 1-1.44 2-3.08 2.15-4.83l.43-5.91c.21-3.38 1.98-7.32 6.27-7.32h2.22c4.29 0 6.06 3.94 6.27 7.33l.43 5.9c.12 1.77 1.19 3.39 2.19 4.83.32.48.63 1 .95 1.51a.25.25 0 0 1 .05.26z"/></g></svg>