<?xml version="1.0" encoding="UTF-8"?>
<svg xmlns="http://www.w3.org/2000/svg" xmlns:xlink="http://www.w3.org/1999/xlink" version="1.1" id="Capa_1" x="0px" y="0px" viewBox="0 0 512 512" style="enable-background:new 0 0 512 512;" xml:space="preserve" width="512" height="512">
<g>
	<g>
		<g>
			<path style="fill:none;stroke:#000000;stroke-width:30;stroke-linecap:round;stroke-linejoin:round;stroke-miterlimit:10;" d="&#10;&#9;&#9;&#9;&#9;M218.581,473.218C114.691,455.45,35.618,364.956,35.618,256S114.691,56.55,218.581,38.782"/>
			
				<line style="fill:none;stroke:#000000;stroke-width:30;stroke-linecap:round;stroke-linejoin:round;stroke-miterlimit:10;" x1="218.581" y1="38.782" x2="195.982" y2="78.894"/>
			
				<line style="fill:none;stroke:#000000;stroke-width:30;stroke-linecap:round;stroke-linejoin:round;stroke-miterlimit:10;" x1="218.581" y1="38.782" x2="179.16" y2="15"/>
		</g>
		<g>
			<path style="fill:none;stroke:#000000;stroke-width:30;stroke-linecap:round;stroke-linejoin:round;stroke-miterlimit:10;" d="&#10;&#9;&#9;&#9;&#9;M293.419,38.782C397.309,56.55,476.382,147.044,476.382,256s-79.072,199.45-182.963,217.218"/>
			
				<line style="fill:none;stroke:#000000;stroke-width:30;stroke-linecap:round;stroke-linejoin:round;stroke-miterlimit:10;" x1="293.419" y1="473.218" x2="316.018" y2="433.106"/>
			
				<line style="fill:none;stroke:#000000;stroke-width:30;stroke-linecap:round;stroke-linejoin:round;stroke-miterlimit:10;" x1="293.419" y1="473.218" x2="332.84" y2="497"/>
		</g>
	</g>
	<path style="fill:none;stroke:#000000;stroke-width:30;stroke-linecap:round;stroke-linejoin:round;stroke-miterlimit:10;" d="&#10;&#9;&#9;M330.095,373H181.905c-14.491,0-26.238-11.747-26.238-26.238v-94.77c0-14.491,11.747-26.238,26.238-26.238h148.191&#10;&#9;&#9;c14.491,0,26.238,11.747,26.238,26.238v94.77C356.333,361.253,344.586,373,330.095,373z"/>
	<path style="fill:none;stroke:#000000;stroke-width:30;stroke-linecap:round;stroke-linejoin:round;stroke-miterlimit:10;" d="&#10;&#9;&#9;M333,225.754V202c0-42.526-34.474-77-77-77h0c-42.526,0-77,34.474-77,77v23.754"/>
	
		<line style="fill:none;stroke:#000000;stroke-width:30;stroke-linecap:round;stroke-linejoin:round;stroke-miterlimit:10;" x1="256" y1="289" x2="256" y2="309.754"/>
</g>















</svg>
